<svg viewBox="0 0 64 64" xmlns="http://www.w3.org/2000/svg"><g id="Layer_42" data-name="Layer 42"><path d="m57.75 28.69h-42.81l40-15.2a1 1 0 0 0 .58-1.29l-3.23-8.55a1 1 0 0 0 -1.29-.58l-45.11 17.13a1 1 0 0 0 -.58 1.29l3.19 8.39v30.12a1 1 0 0 0 1 1h48.25a1 1 0 0 0 1-1v-30.31a1 1 0 0 0 -1-1z" fill="#e6e7e8"></path><path d="m41 43.18a4.9 4.9 0 0 0 -6.91 0 .49.49 0 0 1 -.34.14.51.51 0 0 1 -.35-.14 4.88 4.88 0 0 0 -6.9 6.91l6.5 6.54a1 1 0 0 0 .71.29 1 1 0 0 0 .7-.29l6.59-6.54a4.89 4.89 0 0 0 0-6.91z" fill="#ed0677"></path><path d="m57.75 28.69h-42.81l40-15.2a1 1 0 0 0 .58-1.29l-3.23-8.55a1 1 0 0 0 -1.29-.58l-45.11 17.13a1 1 0 0 0 -.58 1.29l3.19 8.39v30.12a1 1 0 0 0 1 1h48.25a1 1 0 0 0 1-1v-30.31a1 1 0 0 0 -1-1zm-1 9.15h-7.91l5.39-7.15h2.52zm-13.42 0 5.39-7.15h3l-5.38 7.15zm-8.68 0 5.35-7.15h6.17l-5.38 7.15zm-5.51 0 5.39-7.15h3l-5.39 7.15zm-8.68 0 5.38-7.15h6.16l-5.38 7.15zm-5.51 0 5.39-7.15h3l-5.34 7.15zm-4.45 0v-7.15h7.33l-5.39 7.15zm4-18.77 7.57 4.77-2.81 1.07-7.56-4.77zm8.12-3.07 7.58 4.77-5.78 2.23-7.57-4.77zm5.15-2 7.58 4.77-2.81 1.07-7.54-4.74zm8.12-3 7.58 4.77-5.78 2.19-7.58-4.77zm5.11-2 7.57 4.77-2.8 1.07-7.58-4.77zm12.28 3-2.28.87-7.62-4.77 7.4-2.81zm-43.92 9 7.57 4.77-6.85 2.6-2.54-6.65zm1.14 38v-19.16h46.25v19.16z"></path></g></svg>
